<svg width="750" height="129" viewBox="0 0 750 129" fill="none" xmlns="http://www.w3.org/2000/svg">
<path d="M59.842 7.11L49.808 48H35.83L30.204 22.944L24.462 48H10.484L0.566 7.11H12.862L17.618 35.066L24.056 7.11H36.526L42.79 34.834L47.546 7.11H59.842ZM95.754 31.354C95.754 32.2433 95.696 33.1327 95.58 34.022H74.062C74.178 35.8007 74.6613 37.1347 75.512 38.024C76.4013 38.8747 77.5226 39.3 78.876 39.3C80.7706 39.3 82.124 38.4493 82.936 36.748H95.058C94.5553 38.9907 93.5693 41.0013 92.1 42.78C90.6693 44.52 88.852 45.8927 86.648 46.898C84.444 47.9033 82.008 48.406 79.34 48.406C76.1306 48.406 73.2693 47.7293 70.756 46.376C68.2813 45.0227 66.3286 43.0893 64.898 40.576C63.506 38.0627 62.81 35.1047 62.81 31.702C62.81 28.2993 63.506 25.3607 64.898 22.886C66.29 20.3727 68.2233 18.4393 70.698 17.086C73.2113 15.7327 76.092 15.056 79.34 15.056C82.5493 15.056 85.3913 15.7133 87.866 17.028C90.3406 18.3427 92.274 20.2373 93.666 22.712C95.058 25.148 95.754 28.0287 95.754 31.354ZM84.154 28.512C84.154 27.12 83.69 26.0373 82.762 25.264C81.834 24.452 80.674 24.046 79.282 24.046C77.89 24.046 76.7493 24.4327 75.86 25.206C74.9706 25.9407 74.3906 27.0427 74.12 28.512H84.154ZM131.112 48.406C127.284 48.406 123.765 47.5167 120.556 45.738C117.346 43.9207 114.794 41.4267 112.9 38.256C111.044 35.0467 110.116 31.4313 110.116 27.41C110.116 23.3887 111.044 19.7927 112.9 16.622C114.794 13.4127 117.346 10.9187 120.556 9.14C123.765 7.36133 127.284 6.472 131.112 6.472C134.978 6.472 138.497 7.36133 141.668 9.14C144.877 10.9187 147.41 13.4127 149.266 16.622C151.122 19.7927 152.05 23.3887 152.05 27.41C152.05 31.4313 151.122 35.0467 149.266 38.256C147.41 41.4267 144.877 43.9207 141.668 45.738C138.458 47.5167 134.94 48.406 131.112 48.406ZM131.112 37.85C134.012 37.85 136.293 36.9027 137.956 35.008C139.657 33.1133 140.508 30.5807 140.508 27.41C140.508 24.162 139.657 21.61 137.956 19.754C136.293 17.8593 134.012 16.912 131.112 16.912C128.173 16.912 125.872 17.8593 124.21 19.754C122.547 21.61 121.716 24.162 121.716 27.41C121.716 30.6193 122.547 33.1713 124.21 35.066C125.872 36.922 128.173 37.85 131.112 37.85ZM174.734 24.916H169.63V48H158.204V24.916H154.666V15.462H158.204V15.172C158.204 10.996 159.422 7.806 161.858 5.602C164.333 3.35933 167.871 2.238 172.472 2.238C173.4 2.238 174.115 2.25733 174.618 2.296V11.982C174.309 11.9433 173.883 11.924 173.342 11.924C172.105 11.924 171.196 12.214 170.616 12.794C170.036 13.3353 169.707 14.2247 169.63 15.462H174.734V24.916ZM196.371 24.916H191.267V48H179.841V24.916H176.303V15.462H179.841V15.172C179.841 10.996 181.059 7.806 183.495 5.602C185.969 3.35933 189.507 2.238 194.109 2.238C195.037 2.238 195.752 2.25733 196.255 2.296V11.982C195.945 11.9433 195.52 11.924 194.979 11.924C193.741 11.924 192.833 12.214 192.253 12.794C191.673 13.3353 191.344 14.2247 191.267 15.462H196.371V24.916ZM231.522 31.354C231.522 32.2433 231.464 33.1327 231.348 34.022H209.83C209.946 35.8007 210.429 37.1347 211.28 38.024C212.169 38.8747 213.29 39.3 214.644 39.3C216.538 39.3 217.892 38.4493 218.704 36.748H230.826C230.323 38.9907 229.337 41.0013 227.868 42.78C226.437 44.52 224.62 45.8927 222.416 46.898C220.212 47.9033 217.776 48.406 215.108 48.406C211.898 48.406 209.037 47.7293 206.524 46.376C204.049 45.0227 202.096 43.0893 200.666 40.576C199.274 38.0627 198.578 35.1047 198.578 31.702C198.578 28.2993 199.274 25.3607 200.666 22.886C202.058 20.3727 203.991 18.4393 206.466 17.086C208.979 15.7327 211.86 15.056 215.108 15.056C218.317 15.056 221.159 15.7133 223.634 17.028C226.108 18.3427 228.042 20.2373 229.434 22.712C230.826 25.148 231.522 28.0287 231.522 31.354ZM219.922 28.512C219.922 27.12 219.458 26.0373 218.53 25.264C217.602 24.452 216.442 24.046 215.05 24.046C213.658 24.046 212.517 24.4327 211.628 25.206C210.738 25.9407 210.158 27.0427 209.888 28.512H219.922ZM247.542 21.204C248.818 19.348 250.364 17.8787 252.182 16.796C253.999 15.7133 255.952 15.172 258.04 15.172V27.294H254.85C252.375 27.294 250.538 27.7773 249.34 28.744C248.141 29.7107 247.542 31.3927 247.542 33.79V48H236.174V15.462H247.542V21.204Z" fill="white"/>
<path d="M284.585 7.11V48H273.217V7.11H284.585ZM306.487 48.406C301.731 48.406 297.825 47.2847 294.771 45.042C291.716 42.7607 290.073 39.5127 289.841 35.298H301.963C302.079 36.7287 302.504 37.7727 303.239 38.43C303.973 39.0873 304.921 39.416 306.081 39.416C307.125 39.416 307.975 39.1647 308.633 38.662C309.329 38.1207 309.677 37.386 309.677 36.458C309.677 35.2593 309.116 34.3313 307.995 33.674C306.873 33.0167 305.056 32.282 302.543 31.47C299.875 30.5807 297.709 29.73 296.047 28.918C294.423 28.0673 292.992 26.8493 291.755 25.264C290.556 23.64 289.957 21.5327 289.957 18.942C289.957 16.3127 290.614 14.07 291.929 12.214C293.243 10.3193 295.061 8.88867 297.381 7.922C299.701 6.95533 302.33 6.472 305.269 6.472C310.025 6.472 313.814 7.59333 316.637 9.836C319.498 12.04 321.025 15.1527 321.219 19.174H308.865C308.826 17.9367 308.439 17.0087 307.705 16.39C307.009 15.7713 306.1 15.462 304.979 15.462C304.128 15.462 303.432 15.7133 302.891 16.216C302.349 16.7187 302.079 17.434 302.079 18.362C302.079 19.1353 302.369 19.812 302.949 20.392C303.567 20.9333 304.321 21.4167 305.211 21.842C306.1 22.2287 307.415 22.7313 309.155 23.35C311.745 24.2393 313.872 25.1287 315.535 26.018C317.236 26.8687 318.686 28.0867 319.885 29.672C321.122 31.2187 321.741 33.1907 321.741 35.588C321.741 38.024 321.122 40.2087 319.885 42.142C318.686 44.0753 316.927 45.6027 314.607 46.724C312.325 47.8453 309.619 48.406 306.487 48.406ZM346.629 48.406C342.801 48.406 339.283 47.5167 336.073 45.738C332.864 43.9207 330.312 41.4267 328.417 38.256C326.561 35.0467 325.633 31.4313 325.633 27.41C325.633 23.3887 326.561 19.7927 328.417 16.622C330.312 13.4127 332.864 10.9187 336.073 9.14C339.283 7.36133 342.801 6.472 346.629 6.472C350.496 6.472 354.015 7.36133 357.185 9.14C360.395 10.9187 362.927 13.4127 364.783 16.622C366.639 19.7927 367.567 23.3887 367.567 27.41C367.567 31.4313 366.639 35.0467 364.783 38.256C362.927 41.4267 360.395 43.9207 357.185 45.738C353.976 47.5167 350.457 48.406 346.629 48.406ZM346.629 37.85C349.529 37.85 351.811 36.9027 353.473 35.008C355.175 33.1133 356.025 30.5807 356.025 27.41C356.025 24.162 355.175 21.61 353.473 19.754C351.811 17.8593 349.529 16.912 346.629 16.912C343.691 16.912 341.39 17.8593 339.727 19.754C338.065 21.61 337.233 24.162 337.233 27.41C337.233 30.6193 338.065 33.1713 339.727 35.066C341.39 36.922 343.691 37.85 346.629 37.85ZM381.923 31.702C381.923 28.338 382.619 25.3993 384.011 22.886C385.403 20.3727 387.337 18.4393 389.811 17.086C392.325 15.7327 395.186 15.056 398.395 15.056C402.533 15.056 406.013 16.1967 408.835 18.478C411.658 20.7207 413.475 23.872 414.287 27.932H402.223C401.527 25.8053 400.174 24.742 398.163 24.742C396.733 24.742 395.592 25.3413 394.741 26.54C393.929 27.7 393.523 29.4207 393.523 31.702C393.523 33.9833 393.929 35.7233 394.741 36.922C395.592 38.1207 396.733 38.72 398.163 38.72C400.213 38.72 401.566 37.6567 402.223 35.53H414.287C413.475 39.5513 411.658 42.7027 408.835 44.984C406.013 47.2653 402.533 48.406 398.395 48.406C395.186 48.406 392.325 47.7293 389.811 46.376C387.337 45.0227 385.403 43.0893 384.011 40.576C382.619 38.0627 381.923 35.1047 381.923 31.702ZM450.098 31.354C450.098 32.2433 450.04 33.1327 449.924 34.022H428.406C428.522 35.8007 429.005 37.1347 429.856 38.024C430.745 38.8747 431.866 39.3 433.22 39.3C435.114 39.3 436.468 38.4493 437.28 36.748H449.402C448.899 38.9907 447.913 41.0013 446.444 42.78C445.013 44.52 443.196 45.8927 440.992 46.898C438.788 47.9033 436.352 48.406 433.684 48.406C430.474 48.406 427.613 47.7293 425.1 46.376C422.625 45.0227 420.672 43.0893 419.242 40.576C417.85 38.0627 417.154 35.1047 417.154 31.702C417.154 28.2993 417.85 25.3607 419.242 22.886C420.634 20.3727 422.567 18.4393 425.042 17.086C427.555 15.7327 430.436 15.056 433.684 15.056C436.893 15.056 439.735 15.7133 442.21 17.028C444.684 18.3427 446.618 20.2373 448.01 22.712C449.402 25.148 450.098 28.0287 450.098 31.354ZM438.498 28.512C438.498 27.12 438.034 26.0373 437.106 25.264C436.178 24.452 435.018 24.046 433.626 24.046C432.234 24.046 431.093 24.4327 430.204 25.206C429.314 25.9407 428.734 27.0427 428.464 28.512H438.498ZM466.118 21.204C467.394 19.348 468.941 17.8787 470.758 16.796C472.575 15.7133 474.528 15.172 476.616 15.172V27.294H473.426C470.951 27.294 469.115 27.7773 467.916 28.744C466.717 29.7107 466.118 31.3927 466.118 33.79V48H454.75V15.462H466.118V21.204ZM499.889 38.314V48H494.959C486.646 48 482.489 43.882 482.489 35.646V24.916H478.487V15.462H482.489V7.574H493.915V15.462H499.831V24.916H493.915V35.82C493.915 36.7093 494.109 37.3473 494.495 37.734C494.921 38.1207 495.617 38.314 496.583 38.314H499.889ZM510.845 12.446C508.835 12.446 507.211 11.9047 505.973 10.822C504.775 9.70067 504.175 8.30866 504.175 6.646C504.175 4.94466 504.775 3.53333 505.973 2.412C507.211 1.29066 508.835 0.729997 510.845 0.729997C512.817 0.729997 514.403 1.29066 515.601 2.412C516.839 3.53333 517.457 4.94466 517.457 6.646C517.457 8.30866 516.839 9.70067 515.601 10.822C514.403 11.9047 512.817 12.446 510.845 12.446ZM516.471 15.462V48H505.103V15.462H516.471ZM540.519 24.916H535.415V48H523.989V24.916H520.451V15.462H523.989V15.172C523.989 10.996 525.207 7.806 527.643 5.602C530.118 3.35933 533.656 2.238 538.257 2.238C539.185 2.238 539.901 2.25733 540.403 2.296V11.982C540.094 11.9433 539.669 11.924 539.127 11.924C537.89 11.924 536.981 12.214 536.401 12.794C535.821 13.3353 535.493 14.2247 535.415 15.462H540.519V24.916ZM550.324 12.446C548.313 12.446 546.689 11.9047 545.452 10.822C544.253 9.70067 543.654 8.30866 543.654 6.646C543.654 4.94466 544.253 3.53333 545.452 2.412C546.689 1.29066 548.313 0.729997 550.324 0.729997C552.296 0.729997 553.881 1.29066 555.08 2.412C556.317 3.53333 556.936 4.94466 556.936 6.646C556.936 8.30866 556.317 9.70067 555.08 10.822C553.881 11.9047 552.296 12.446 550.324 12.446ZM555.95 15.462V48H544.582V15.462H555.95ZM560.568 31.702C560.568 28.338 561.264 25.3993 562.656 22.886C564.048 20.3727 565.981 18.4393 568.456 17.086C570.969 15.7327 573.83 15.056 577.04 15.056C581.177 15.056 584.657 16.1967 587.48 18.478C590.302 20.7207 592.12 23.872 592.932 27.932H580.868C580.172 25.8053 578.818 24.742 576.808 24.742C575.377 24.742 574.236 25.3413 573.386 26.54C572.574 27.7 572.168 29.4207 572.168 31.702C572.168 33.9833 572.574 35.7233 573.386 36.922C574.236 38.1207 575.377 38.72 576.808 38.72C578.857 38.72 580.21 37.6567 580.868 35.53H592.932C592.12 39.5513 590.302 42.7027 587.48 44.984C584.657 47.2653 581.177 48.406 577.04 48.406C573.83 48.406 570.969 47.7293 568.456 46.376C565.981 45.0227 564.048 43.0893 562.656 40.576C561.264 38.0627 560.568 35.1047 560.568 31.702ZM595.798 31.702C595.798 28.338 596.398 25.3993 597.596 22.886C598.834 20.3727 600.496 18.4393 602.584 17.086C604.711 15.7327 607.07 15.056 609.66 15.056C611.903 15.056 613.836 15.5007 615.46 16.39C617.084 17.2793 618.341 18.478 619.23 19.986V15.462H630.598V48H619.23V43.476C618.341 44.984 617.065 46.1827 615.402 47.072C613.778 47.9613 611.864 48.406 609.66 48.406C607.07 48.406 604.711 47.7293 602.584 46.376C600.496 45.0227 598.834 43.0893 597.596 40.576C596.398 38.024 595.798 35.066 595.798 31.702ZM619.23 31.702C619.23 29.614 618.65 27.9707 617.49 26.772C616.369 25.5733 614.977 24.974 613.314 24.974C611.613 24.974 610.202 25.5733 609.08 26.772C607.959 27.932 607.398 29.5753 607.398 31.702C607.398 33.79 607.959 35.4527 609.08 36.69C610.202 37.8887 611.613 38.488 613.314 38.488C614.977 38.488 616.369 37.8887 617.49 36.69C618.65 35.4913 619.23 33.8287 619.23 31.702ZM656.274 38.314V48H651.344C643.031 48 638.874 43.882 638.874 35.646V24.916H634.872V15.462H638.874V7.574H650.3V15.462H656.216V24.916H650.3V35.82C650.3 36.7093 650.493 37.3473 650.88 37.734C651.305 38.1207 652.001 38.314 652.968 38.314H656.274ZM667.23 12.446C665.22 12.446 663.596 11.9047 662.358 10.822C661.16 9.70067 660.56 8.30866 660.56 6.646C660.56 4.94466 661.16 3.53333 662.358 2.412C663.596 1.29066 665.22 0.729997 667.23 0.729997C669.202 0.729997 670.788 1.29066 671.986 2.412C673.224 3.53333 673.842 4.94466 673.842 6.646C673.842 8.30866 673.224 9.70067 671.986 10.822C670.788 11.9047 669.202 12.446 667.23 12.446ZM672.856 15.462V48H661.488V15.462H672.856ZM694.468 48.406C691.22 48.406 688.301 47.7293 685.71 46.376C683.158 45.0227 681.147 43.0893 679.678 40.576C678.209 38.0627 677.474 35.1047 677.474 31.702C677.474 28.338 678.209 25.3993 679.678 22.886C681.186 20.3727 683.216 18.4393 685.768 17.086C688.359 15.7327 691.278 15.056 694.526 15.056C697.774 15.056 700.674 15.7327 703.226 17.086C705.817 18.4393 707.847 20.3727 709.316 22.886C710.824 25.3993 711.578 28.338 711.578 31.702C711.578 35.066 710.824 38.024 709.316 40.576C707.847 43.0893 705.817 45.0227 703.226 46.376C700.635 47.7293 697.716 48.406 694.468 48.406ZM694.468 38.546C696.053 38.546 697.368 37.966 698.412 36.806C699.495 35.6073 700.036 33.906 700.036 31.702C700.036 29.498 699.495 27.816 698.412 26.656C697.368 25.496 696.073 24.916 694.526 24.916C692.979 24.916 691.684 25.496 690.64 26.656C689.596 27.816 689.074 29.498 689.074 31.702C689.074 33.9447 689.577 35.646 690.582 36.806C691.587 37.966 692.883 38.546 694.468 38.546ZM737.489 15.172C741.24 15.172 744.217 16.4287 746.421 18.942C748.625 21.4167 749.727 24.7807 749.727 29.034V48H738.359V30.542C738.359 28.686 737.876 27.236 736.909 26.192C735.942 25.1093 734.647 24.568 733.023 24.568C731.322 24.568 729.988 25.1093 729.021 26.192C728.054 27.236 727.571 28.686 727.571 30.542V48H716.203V15.462H727.571V20.102C728.576 18.6327 729.93 17.4533 731.631 16.564C733.332 15.636 735.285 15.172 737.489 15.172ZM34.554 100.74C34.554 103.215 33.974 105.477 32.814 107.526C31.6927 109.537 29.972 111.161 27.652 112.398C25.3707 113.597 22.5673 114.196 19.242 114.196H13.616V128H2.248V87.11H19.242C22.5287 87.11 25.3127 87.69 27.594 88.85C29.914 90.01 31.654 91.6147 32.814 93.664C33.974 95.7133 34.554 98.072 34.554 100.74ZM18.14 105.148C21.3493 105.148 22.954 103.679 22.954 100.74C22.954 97.7627 21.3493 96.274 18.14 96.274H13.616V105.148H18.14ZM50.489 101.204C51.765 99.348 53.3117 97.8787 55.129 96.796C56.9464 95.7133 58.899 95.172 60.987 95.172V107.294H57.797C55.3224 107.294 53.4857 107.777 52.287 108.744C51.0884 109.711 50.489 111.393 50.489 113.79V128H39.121V95.462H50.489V101.204ZM80.2005 128.406C76.9525 128.406 74.0331 127.729 71.4425 126.376C68.8905 125.023 66.8798 123.089 65.4105 120.576C63.9411 118.063 63.2065 115.105 63.2065 111.702C63.2065 108.338 63.9411 105.399 65.4105 102.886C66.9185 100.373 68.9485 98.4393 71.5005 97.086C74.0911 95.7327 77.0105 95.056 80.2585 95.056C83.5065 95.056 86.4065 95.7327 88.9585 97.086C91.5491 98.4393 93.5791 100.373 95.0485 102.886C96.5565 105.399 97.3105 108.338 97.3105 111.702C97.3105 115.066 96.5565 118.024 95.0485 120.576C93.5791 123.089 91.5491 125.023 88.9585 126.376C86.3678 127.729 83.4485 128.406 80.2005 128.406ZM80.2005 118.546C81.7858 118.546 83.1005 117.966 84.1445 116.806C85.2271 115.607 85.7685 113.906 85.7685 111.702C85.7685 109.498 85.2271 107.816 84.1445 106.656C83.1005 105.496 81.8051 104.916 80.2585 104.916C78.7118 104.916 77.4165 105.496 76.3725 106.656C75.3285 107.816 74.8065 109.498 74.8065 111.702C74.8065 113.945 75.3091 115.646 76.3145 116.806C77.3198 117.966 78.6151 118.546 80.2005 118.546ZM119.51 104.916H114.406V128H102.98V104.916H99.4415V95.462H102.98V95.172C102.98 90.996 104.198 87.806 106.634 85.602C109.108 83.3593 112.646 82.238 117.248 82.238C118.176 82.238 118.891 82.2573 119.394 82.296V91.982C119.084 91.9433 118.659 91.924 118.118 91.924C116.88 91.924 115.972 92.214 115.392 92.794C114.812 93.3353 114.483 94.2247 114.406 95.462H119.51V104.916ZM154.66 111.354C154.66 112.243 154.602 113.133 154.486 114.022H132.968C133.084 115.801 133.568 117.135 134.418 118.024C135.308 118.875 136.429 119.3 137.782 119.3C139.677 119.3 141.03 118.449 141.842 116.748H153.964C153.462 118.991 152.476 121.001 151.006 122.78C149.576 124.52 147.758 125.893 145.554 126.898C143.35 127.903 140.914 128.406 138.246 128.406C135.037 128.406 132.176 127.729 129.662 126.376C127.188 125.023 125.235 123.089 123.804 120.576C122.412 118.063 121.716 115.105 121.716 111.702C121.716 108.299 122.412 105.361 123.804 102.886C125.196 100.373 127.13 98.4393 129.604 97.086C132.118 95.7327 134.998 95.056 138.246 95.056C141.456 95.056 144.298 95.7133 146.772 97.028C149.247 98.3427 151.18 100.237 152.572 102.712C153.964 105.148 154.66 108.029 154.66 111.354ZM143.06 108.512C143.06 107.12 142.596 106.037 141.668 105.264C140.74 104.452 139.58 104.046 138.188 104.046C136.796 104.046 135.656 104.433 134.766 105.206C133.877 105.941 133.297 107.043 133.026 108.512H143.06ZM173.174 128.406C170.236 128.406 167.606 127.923 165.286 126.956C163.005 125.951 161.188 124.597 159.834 122.896C158.52 121.156 157.785 119.203 157.63 117.038H168.65C168.805 118.082 169.288 118.894 170.1 119.474C170.912 120.054 171.918 120.344 173.116 120.344C174.044 120.344 174.779 120.151 175.32 119.764C175.862 119.377 176.132 118.875 176.132 118.256C176.132 117.444 175.688 116.845 174.798 116.458C173.909 116.071 172.44 115.646 170.39 115.182C168.07 114.718 166.137 114.196 164.59 113.616C163.044 113.036 161.69 112.089 160.53 110.774C159.409 109.459 158.848 107.681 158.848 105.438C158.848 103.505 159.37 101.765 160.414 100.218C161.458 98.6327 162.986 97.376 164.996 96.448C167.046 95.52 169.501 95.056 172.362 95.056C176.616 95.056 179.96 96.1 182.396 98.188C184.832 100.276 186.244 103.021 186.63 106.424H176.364C176.171 105.38 175.707 104.587 174.972 104.046C174.276 103.466 173.329 103.176 172.13 103.176C171.202 103.176 170.487 103.35 169.984 103.698C169.52 104.046 169.288 104.529 169.288 105.148C169.288 105.921 169.733 106.521 170.622 106.946C171.512 107.333 172.942 107.739 174.914 108.164C177.273 108.667 179.226 109.227 180.772 109.846C182.358 110.465 183.73 111.47 184.89 112.862C186.089 114.215 186.688 116.071 186.688 118.43C186.688 120.325 186.128 122.026 185.006 123.534C183.924 125.042 182.358 126.241 180.308 127.13C178.298 127.981 175.92 128.406 173.174 128.406ZM206.139 128.406C203.201 128.406 200.571 127.923 198.251 126.956C195.97 125.951 194.153 124.597 192.799 122.896C191.485 121.156 190.75 119.203 190.595 117.038H201.615C201.77 118.082 202.253 118.894 203.065 119.474C203.877 120.054 204.883 120.344 206.081 120.344C207.009 120.344 207.744 120.151 208.285 119.764C208.827 119.377 209.097 118.875 209.097 118.256C209.097 117.444 208.653 116.845 207.763 116.458C206.874 116.071 205.405 115.646 203.355 115.182C201.035 114.718 199.102 114.196 197.555 113.616C196.009 113.036 194.655 112.089 193.495 110.774C192.374 109.459 191.813 107.681 191.813 105.438C191.813 103.505 192.335 101.765 193.379 100.218C194.423 98.6327 195.951 97.376 197.961 96.448C200.011 95.52 202.466 95.056 205.327 95.056C209.581 95.056 212.925 96.1 215.361 98.188C217.797 100.276 219.209 103.021 219.595 106.424H209.329C209.136 105.38 208.672 104.587 207.937 104.046C207.241 103.466 206.294 103.176 205.095 103.176C204.167 103.176 203.452 103.35 202.949 103.698C202.485 104.046 202.253 104.529 202.253 105.148C202.253 105.921 202.698 106.521 203.587 106.946C204.477 107.333 205.907 107.739 207.879 108.164C210.238 108.667 212.191 109.227 213.737 109.846C215.323 110.465 216.695 111.47 217.855 112.862C219.054 114.215 219.653 116.071 219.653 118.43C219.653 120.325 219.093 122.026 217.971 123.534C216.889 125.042 215.323 126.241 213.273 127.13C211.263 127.981 208.885 128.406 206.139 128.406ZM230.984 92.446C228.973 92.446 227.349 91.9047 226.112 90.822C224.913 89.7007 224.314 88.3087 224.314 86.646C224.314 84.9447 224.913 83.5333 226.112 82.412C227.349 81.2907 228.973 80.73 230.984 80.73C232.956 80.73 234.541 81.2907 235.74 82.412C236.977 83.5333 237.596 84.9447 237.596 86.646C237.596 88.3087 236.977 89.7007 235.74 90.822C234.541 91.9047 232.956 92.446 230.984 92.446ZM236.61 95.462V128H225.242V95.462H236.61ZM258.222 128.406C254.974 128.406 252.055 127.729 249.464 126.376C246.912 125.023 244.901 123.089 243.432 120.576C241.963 118.063 241.228 115.105 241.228 111.702C241.228 108.338 241.963 105.399 243.432 102.886C244.94 100.373 246.97 98.4393 249.522 97.086C252.113 95.7327 255.032 95.056 258.28 95.056C261.528 95.056 264.428 95.7327 266.98 97.086C269.571 98.4393 271.601 100.373 273.07 102.886C274.578 105.399 275.332 108.338 275.332 111.702C275.332 115.066 274.578 118.024 273.07 120.576C271.601 123.089 269.571 125.023 266.98 126.376C264.389 127.729 261.47 128.406 258.222 128.406ZM258.222 118.546C259.807 118.546 261.122 117.966 262.166 116.806C263.249 115.607 263.79 113.906 263.79 111.702C263.79 109.498 263.249 107.816 262.166 106.656C261.122 105.496 259.827 104.916 258.28 104.916C256.733 104.916 255.438 105.496 254.394 106.656C253.35 107.816 252.828 109.498 252.828 111.702C252.828 113.945 253.331 115.646 254.336 116.806C255.341 117.966 256.637 118.546 258.222 118.546ZM301.243 95.172C304.994 95.172 307.971 96.4287 310.175 98.942C312.379 101.417 313.481 104.781 313.481 109.034V128H302.113V110.542C302.113 108.686 301.63 107.236 300.663 106.192C299.696 105.109 298.401 104.568 296.777 104.568C295.076 104.568 293.742 105.109 292.775 106.192C291.808 107.236 291.325 108.686 291.325 110.542V128H279.957V95.462H291.325V100.102C292.33 98.6327 293.684 97.4533 295.385 96.564C297.086 95.636 299.039 95.172 301.243 95.172ZM317.863 111.702C317.863 108.338 318.462 105.399 319.661 102.886C320.898 100.373 322.561 98.4393 324.649 97.086C326.775 95.7327 329.134 95.056 331.725 95.056C333.967 95.056 335.901 95.5007 337.525 96.39C339.149 97.2793 340.405 98.478 341.295 99.986V95.462H352.663V128H341.295V123.476C340.405 124.984 339.129 126.183 337.467 127.072C335.843 127.961 333.929 128.406 331.725 128.406C329.134 128.406 326.775 127.729 324.649 126.376C322.561 125.023 320.898 123.089 319.661 120.576C318.462 118.024 317.863 115.066 317.863 111.702ZM341.295 111.702C341.295 109.614 340.715 107.971 339.555 106.772C338.433 105.573 337.041 104.974 335.379 104.974C333.677 104.974 332.266 105.573 331.145 106.772C330.023 107.932 329.463 109.575 329.463 111.702C329.463 113.79 330.023 115.453 331.145 116.69C332.266 117.889 333.677 118.488 335.379 118.488C337.041 118.488 338.433 117.889 339.555 116.69C340.715 115.491 341.295 113.829 341.295 111.702ZM370.509 85.08V128H359.141V85.08H370.509ZM386.692 107.468C386.692 103.447 387.523 99.87 389.186 96.738C390.887 93.5673 393.285 91.112 396.378 89.372C399.471 87.5933 403.029 86.704 407.05 86.704C412.154 86.704 416.446 88.0767 419.926 90.822C423.406 93.5287 425.649 97.2213 426.654 101.9H414.416C413.681 100.353 412.657 99.174 411.342 98.362C410.066 97.55 408.577 97.144 406.876 97.144C404.247 97.144 402.139 98.0913 400.554 99.986C399.007 101.842 398.234 104.336 398.234 107.468C398.234 110.639 399.007 113.171 400.554 115.066C402.139 116.922 404.247 117.85 406.876 117.85C408.577 117.85 410.066 117.444 411.342 116.632C412.657 115.82 413.681 114.641 414.416 113.094H426.654C425.649 117.773 423.406 121.485 419.926 124.23C416.446 126.937 412.154 128.29 407.05 128.29C403.029 128.29 399.471 127.42 396.378 125.68C393.285 123.901 390.887 121.446 389.186 118.314C387.523 115.143 386.692 111.528 386.692 107.468ZM447.175 128.406C443.927 128.406 441.008 127.729 438.417 126.376C435.865 125.023 433.854 123.089 432.385 120.576C430.916 118.063 430.181 115.105 430.181 111.702C430.181 108.338 430.916 105.399 432.385 102.886C433.893 100.373 435.923 98.4393 438.475 97.086C441.066 95.7327 443.985 95.056 447.233 95.056C450.481 95.056 453.381 95.7327 455.933 97.086C458.524 98.4393 460.554 100.373 462.023 102.886C463.531 105.399 464.285 108.338 464.285 111.702C464.285 115.066 463.531 118.024 462.023 120.576C460.554 123.089 458.524 125.023 455.933 126.376C453.342 127.729 450.423 128.406 447.175 128.406ZM447.175 118.546C448.76 118.546 450.075 117.966 451.119 116.806C452.202 115.607 452.743 113.906 452.743 111.702C452.743 109.498 452.202 107.816 451.119 106.656C450.075 105.496 448.78 104.916 447.233 104.916C445.686 104.916 444.391 105.496 443.347 106.656C442.303 107.816 441.781 109.498 441.781 111.702C441.781 113.945 442.284 115.646 443.289 116.806C444.294 117.966 445.59 118.546 447.175 118.546ZM502.202 95.462V128H490.776V123.36C489.809 124.829 488.475 126.028 486.774 126.956C485.073 127.845 483.12 128.29 480.916 128.29C477.127 128.29 474.13 127.053 471.926 124.578C469.761 122.065 468.678 118.662 468.678 114.37V95.462H479.988V112.92C479.988 114.776 480.471 116.245 481.438 117.328C482.443 118.372 483.758 118.894 485.382 118.894C487.045 118.894 488.359 118.372 489.326 117.328C490.293 116.245 490.776 114.776 490.776 112.92V95.462H502.202ZM520.04 101.204C521.316 99.348 522.862 97.8787 524.68 96.796C526.497 95.7133 528.45 95.172 530.538 95.172V107.294H527.348C524.873 107.294 523.036 107.777 521.838 108.744C520.639 109.711 520.04 111.393 520.04 113.79V128H508.672V95.462H520.04V101.204ZM548.475 128.406C545.537 128.406 542.907 127.923 540.587 126.956C538.306 125.951 536.489 124.597 535.135 122.896C533.821 121.156 533.086 119.203 532.931 117.038H543.951C544.106 118.082 544.589 118.894 545.401 119.474C546.213 120.054 547.219 120.344 548.417 120.344C549.345 120.344 550.08 120.151 550.621 119.764C551.163 119.377 551.433 118.875 551.433 118.256C551.433 117.444 550.989 116.845 550.099 116.458C549.21 116.071 547.741 115.646 545.691 115.182C543.371 114.718 541.438 114.196 539.891 113.616C538.345 113.036 536.991 112.089 535.831 110.774C534.71 109.459 534.149 107.681 534.149 105.438C534.149 103.505 534.671 101.765 535.715 100.218C536.759 98.6327 538.287 97.376 540.297 96.448C542.347 95.52 544.802 95.056 547.663 95.056C551.917 95.056 555.261 96.1 557.697 98.188C560.133 100.276 561.545 103.021 561.931 106.424H551.665C551.472 105.38 551.008 104.587 550.273 104.046C549.577 103.466 548.63 103.176 547.431 103.176C546.503 103.176 545.788 103.35 545.285 103.698C544.821 104.046 544.589 104.529 544.589 105.148C544.589 105.921 545.034 106.521 545.923 106.946C546.813 107.333 548.243 107.739 550.215 108.164C552.574 108.667 554.527 109.227 556.073 109.846C557.659 110.465 559.031 111.47 560.191 112.862C561.39 114.215 561.989 116.071 561.989 118.43C561.989 120.325 561.429 122.026 560.307 123.534C559.225 125.042 557.659 126.241 555.609 127.13C553.599 127.981 551.221 128.406 548.475 128.406ZM598.666 111.354C598.666 112.243 598.608 113.133 598.492 114.022H576.974C577.09 115.801 577.573 117.135 578.424 118.024C579.313 118.875 580.435 119.3 581.788 119.3C583.683 119.3 585.036 118.449 585.848 116.748H597.97C597.467 118.991 596.481 121.001 595.012 122.78C593.581 124.52 591.764 125.893 589.56 126.898C587.356 127.903 584.92 128.406 582.252 128.406C579.043 128.406 576.181 127.729 573.668 126.376C571.193 125.023 569.241 123.089 567.81 120.576C566.418 118.063 565.722 115.105 565.722 111.702C565.722 108.299 566.418 105.361 567.81 102.886C569.202 100.373 571.135 98.4393 573.61 97.086C576.123 95.7327 579.004 95.056 582.252 95.056C585.461 95.056 588.303 95.7133 590.778 97.028C593.253 98.3427 595.186 100.237 596.578 102.712C597.97 105.148 598.666 108.029 598.666 111.354ZM587.066 108.512C587.066 107.12 586.602 106.037 585.674 105.264C584.746 104.452 583.586 104.046 582.194 104.046C580.802 104.046 579.661 104.433 578.772 105.206C577.883 105.941 577.303 107.043 577.032 108.512H587.066ZM617.18 128.406C614.242 128.406 611.612 127.923 609.292 126.956C607.011 125.951 605.194 124.597 603.84 122.896C602.526 121.156 601.791 119.203 601.636 117.038H612.656C612.811 118.082 613.294 118.894 614.106 119.474C614.918 120.054 615.924 120.344 617.122 120.344C618.05 120.344 618.785 120.151 619.326 119.764C619.868 119.377 620.138 118.875 620.138 118.256C620.138 117.444 619.694 116.845 618.804 116.458C617.915 116.071 616.446 115.646 614.396 115.182C612.076 114.718 610.143 114.196 608.596 113.616C607.05 113.036 605.696 112.089 604.536 110.774C603.415 109.459 602.854 107.681 602.854 105.438C602.854 103.505 603.376 101.765 604.42 100.218C605.464 98.6327 606.992 97.376 609.002 96.448C611.052 95.52 613.507 95.056 616.368 95.056C620.622 95.056 623.966 96.1 626.402 98.188C628.838 100.276 630.25 103.021 630.636 106.424H620.37C620.177 105.38 619.713 104.587 618.978 104.046C618.282 103.466 617.335 103.176 616.136 103.176C615.208 103.176 614.493 103.35 613.99 103.698C613.526 104.046 613.294 104.529 613.294 105.148C613.294 105.921 613.739 106.521 614.628 106.946C615.518 107.333 616.948 107.739 618.92 108.164C621.279 108.667 623.232 109.227 624.778 109.846C626.364 110.465 627.736 111.47 628.896 112.862C630.095 114.215 630.694 116.071 630.694 118.43C630.694 120.325 630.134 122.026 629.012 123.534C627.93 125.042 626.364 126.241 624.314 127.13C622.304 127.981 619.926 128.406 617.18 128.406ZM641.793 128.464C639.782 128.464 638.158 127.923 636.921 126.84C635.722 125.719 635.123 124.307 635.123 122.606C635.123 120.905 635.722 119.493 636.921 118.372C638.158 117.251 639.782 116.69 641.793 116.69C643.765 116.69 645.35 117.251 646.549 118.372C647.786 119.493 648.405 120.905 648.405 122.606C648.405 124.269 647.786 125.661 646.549 126.782C645.35 127.903 643.765 128.464 641.793 128.464ZM641.793 105.148C639.782 105.148 638.158 104.607 636.921 103.524C635.722 102.403 635.123 100.991 635.123 99.29C635.123 97.5887 635.722 96.1773 636.921 95.056C638.158 93.9347 639.782 93.374 641.793 93.374C643.765 93.374 645.35 93.9347 646.549 95.056C647.786 96.1773 648.405 97.5887 648.405 99.29C648.405 100.953 647.786 102.345 646.549 103.466C645.35 104.587 643.765 105.148 641.793 105.148Z" fill="#FFA600"/>
</svg>
