<svg width="36" height="29" viewBox="0 0 36 29" fill="none" xmlns="http://www.w3.org/2000/svg">
<path d="M0.1224 2.68011L16.0974 18.7319C16.57 19.207 17.2012 19.4891 17.8689 19.5235C18.5366 19.5579 19.1933 19.3422 19.7118 18.9181L19.917 18.7319L35.8812 2.69096C35.9334 2.88989 35.9676 3.09244 35.9856 3.30041L36 3.61689V25.3182C36.0003 26.2307 35.6573 27.1096 35.0397 27.7787C34.4221 28.4478 33.5757 28.8576 32.67 28.9261L32.4 28.9351H3.6C2.69176 28.9354 1.81698 28.5908 1.15101 27.9703C0.485047 27.3498 0.077118 26.4994 0.00900021 25.5895L0 25.3182V3.61689C0 3.39987 0.0179999 3.19009 0.0539999 2.98393L0.1224 2.68011ZM32.4 0C32.6178 0 32.832 0.0180847 33.039 0.056062L33.345 0.126591L18.009 15.5345L2.6676 0.122974C2.8656 0.0687206 3.0708 0.0325518 3.2796 0.0144674L3.6 0H32.4Z" fill="white"/>
</svg>
