<svg width="36" height="36" viewBox="0 0 36 36" fill="none" xmlns="http://www.w3.org/2000/svg">
<path d="M12.96 9.36C12.96 9.78721 12.8333 10.2048 12.596 10.56C12.3586 10.9152 12.0213 11.1921 11.6266 11.3556C11.2319 11.5191 10.7976 11.5618 10.3786 11.4785C9.95961 11.3952 9.57473 11.1894 9.27265 10.8874C8.97057 10.5853 8.76485 10.2004 8.6815 9.7814C8.59816 9.3624 8.64093 8.92809 8.80442 8.5334C8.96791 8.13872 9.24476 7.80137 9.59997 7.56403C9.95518 7.32668 10.3728 7.2 10.8 7.2C11.3729 7.2 11.9223 7.42757 12.3274 7.83265C12.7324 8.23773 12.96 8.78713 12.96 9.36ZM36 2.88V33.12C36 33.8838 35.6966 34.6164 35.1565 35.1565C34.6164 35.6966 33.8838 36 33.12 36H2.88C2.11618 36 1.38364 35.6966 0.843532 35.1565C0.303428 34.6164 0 33.8838 0 33.12V2.88C0 2.11618 0.303428 1.38364 0.843532 0.843532C1.38364 0.303428 2.11618 0 2.88 0H33.12C33.8838 0 34.6164 0.303428 35.1565 0.843532C35.6966 1.38364 36 2.11618 36 2.88ZM33.12 33.12V2.88H2.88V33.12H33.12ZM10.8 13.68C10.4181 13.68 10.0518 13.8317 9.78177 14.1018C9.51171 14.3718 9.36 14.7381 9.36 15.12V26.64C9.36 27.0219 9.51171 27.3882 9.78177 27.6582C10.0518 27.9283 10.4181 28.08 10.8 28.08C11.1819 28.08 11.5482 27.9283 11.8182 27.6582C12.0883 27.3882 12.24 27.0219 12.24 26.64V15.12C12.24 14.7381 12.0883 14.3718 11.8182 14.1018C11.5482 13.8317 11.1819 13.68 10.8 13.68ZM21.6 13.68C20.3037 13.6799 19.0371 14.0687 17.964 14.796C17.8853 14.4505 17.6819 14.1461 17.3928 13.9412C17.1036 13.7362 16.7491 13.6451 16.397 13.6852C16.0449 13.7253 15.7199 13.8939 15.4843 14.1586C15.2487 14.4233 15.119 14.7656 15.12 15.12V26.64C15.12 27.0219 15.2717 27.3882 15.5418 27.6582C15.8118 27.9283 16.1781 28.08 16.56 28.08C16.9419 28.08 17.3082 27.9283 17.5782 27.6582C17.8483 27.3882 18 27.0219 18 26.64V20.16C18 19.2052 18.3793 18.2895 19.0544 17.6144C19.7295 16.9393 20.6452 16.56 21.6 16.56C22.5548 16.56 23.4705 16.9393 24.1456 17.6144C24.8207 18.2895 25.2 19.2052 25.2 20.16V26.64C25.2 27.0219 25.3517 27.3882 25.6218 27.6582C25.8918 27.9283 26.2581 28.08 26.64 28.08C27.0219 28.08 27.3882 27.9283 27.6582 27.6582C27.9283 27.3882 28.08 27.0219 28.08 26.64V20.16C28.08 18.4414 27.3973 16.7932 26.1821 15.5779C24.9668 14.3627 23.3186 13.68 21.6 13.68Z" fill="white"/>
</svg>
