<svg width="36" height="33" viewBox="0 0 36 33" fill="none" xmlns="http://www.w3.org/2000/svg">
<path d="M32.4727 22.1981L27.3825 21.6726C26.7839 21.609 26.1772 21.669 25.608 21.8479C25.0388 22.0268 24.5218 22.32 24.0958 22.7055L20.4084 26.0397C14.7194 23.4235 10.0952 19.2423 7.20184 14.0981L10.9093 10.7457C11.771 9.9665 12.1919 8.87925 12.0516 7.77387L11.4704 3.2074C11.3568 2.32342 10.8876 1.50809 10.1523 0.916644C9.41686 0.325198 8.4666 -0.0010551 7.48241 2.56354e-06H4.01543C1.75087 2.56354e-06 -0.132921 1.70337 0.00736177 3.75103C1.0695 19.2263 14.7571 31.5847 31.8515 32.5452C34.116 32.672 35.9998 30.9686 35.9998 28.921V25.7861C36.0198 23.9558 34.4968 22.4156 32.4727 22.1981Z" fill="white"/>
</svg>
